G04*
G04 #@! TF.GenerationSoftware,Altium Limited,Altium Designer,23.0.1 (38)*
G04*
G04 Layer_Color=65535*
%FSLAX44Y44*%
%MOMM*%
G71*
G04*
G04 #@! TF.SameCoordinates,A3EDC093-15D2-44AE-8FD2-E7B7E0E1842E*
G04*
G04*
G04 #@! TF.FilePolarity,Positive*
G04*
G01*
G75*
%ADD10C,0.2500*%
%ADD11C,0.2000*%
%ADD12C,0.2540*%
%ADD13R,1.5500X0.8500*%
D10*
X1390630Y832270D02*
G03*
X1390630Y832270I-1250J0D01*
G01*
X1458610Y553720D02*
G03*
X1458610Y553720I-1250J0D01*
G01*
X1412005Y578485D02*
G03*
X1412005Y578485I-1250J0D01*
G01*
X1527790Y383120D02*
G03*
X1527790Y383120I-1250J0D01*
G01*
D11*
X1429880Y846140D02*
X1445980D01*
X1429880Y746440D02*
X1445980D01*
X1429880D02*
Y846140D01*
X1567540Y695640D02*
Y872640D01*
X1719790Y695640D02*
X1739540D01*
X1567540D02*
X1587290D01*
X1739540D02*
Y872640D01*
X1719790D02*
X1739540D01*
X1567540D02*
X1587290D01*
X1468860Y561020D02*
Y561170D01*
Y508170D02*
Y508320D01*
Y508170D02*
X1527860D01*
Y561020D02*
Y561170D01*
Y508170D02*
Y508320D01*
X1468860Y561170D02*
X1527860D01*
X1628500Y565980D02*
Y637980D01*
X1673500D01*
Y565980D02*
Y637980D01*
X1628500Y565980D02*
X1673500D01*
X1553570D02*
Y637980D01*
X1598570D01*
Y565980D02*
Y637980D01*
X1553570Y565980D02*
X1598570D01*
X1495550Y625158D02*
Y662622D01*
X1527050Y625158D02*
Y662622D01*
X1740810Y347110D02*
Y524110D01*
X1568810D02*
X1588560D01*
X1721060D02*
X1740810D01*
X1568810Y347110D02*
Y524110D01*
Y347110D02*
X1588560D01*
X1721060D02*
X1740810D01*
X1462370Y602360D02*
Y604360D01*
X1473870Y602360D02*
Y604360D01*
X1406560Y531130D02*
Y533130D01*
X1395060Y531130D02*
Y533130D01*
X1367030Y466408D02*
Y503872D01*
X1335530Y466408D02*
Y503872D01*
X1399255Y571035D02*
Y571185D01*
Y623885D02*
Y624035D01*
X1340255D02*
X1399255D01*
X1340255Y571035D02*
Y571185D01*
Y623885D02*
Y624035D01*
Y571035D02*
X1399255D01*
X1699900Y567970D02*
Y637970D01*
X1773900Y567970D02*
Y637970D01*
X1699900D02*
X1773900D01*
X1762350Y563970D02*
X1768850D01*
X1768100Y567970D02*
X1768850Y563970D01*
X1762350D02*
X1763100Y567970D01*
X1768100D02*
X1773900D01*
X1710700D02*
X1711450Y563970D01*
X1704950D02*
X1705700Y567970D01*
X1704950Y563970D02*
X1711450D01*
X1699900Y567970D02*
X1705700D01*
X1710700D02*
X1763100D01*
X1304460Y495860D02*
Y565860D01*
X1230460Y495860D02*
Y565860D01*
Y495860D02*
X1304460D01*
X1235510Y569860D02*
X1242010D01*
X1235510D02*
X1236260Y565860D01*
X1241260D02*
X1242010Y569860D01*
X1230460Y565860D02*
X1236260D01*
X1292910Y569860D02*
X1293660Y565860D01*
X1298660D02*
X1299410Y569860D01*
X1292910D02*
X1299410D01*
X1298660Y565860D02*
X1304460D01*
X1241260D02*
X1293660D01*
X1469940Y369250D02*
X1486040D01*
X1469940Y468950D02*
X1486040D01*
Y369250D02*
Y468950D01*
X1429890Y527440D02*
X1445390D01*
X1429890D02*
Y544440D01*
X1445390Y527440D02*
Y544440D01*
X1429890Y613020D02*
X1445390D01*
Y596020D02*
Y613020D01*
X1429890Y596020D02*
Y613020D01*
X1344169Y477502D02*
Y487498D01*
X1349168D01*
X1350834Y485832D01*
Y482500D01*
X1349168Y480834D01*
X1344169D01*
X1347502D02*
X1350834Y477502D01*
X1360831D02*
X1354166D01*
X1360831Y484166D01*
Y485832D01*
X1359164Y487498D01*
X1355832D01*
X1354166Y485832D01*
D12*
X1422304Y880117D02*
Y864883D01*
X1429922D01*
X1432461Y867422D01*
Y877578D01*
X1429922Y880117D01*
X1422304D01*
X1437539Y877578D02*
X1440078Y880117D01*
X1445157D01*
X1447696Y877578D01*
Y875039D01*
X1445157Y872500D01*
X1442617D01*
X1445157D01*
X1447696Y869961D01*
Y867422D01*
X1445157Y864883D01*
X1440078D01*
X1437539Y867422D01*
X1644804Y797617D02*
Y782383D01*
X1654961D01*
X1670196D02*
X1660039D01*
X1670196Y792539D01*
Y795078D01*
X1667657Y797617D01*
X1662578D01*
X1660039Y795078D01*
X1507461Y484922D02*
Y495078D01*
X1504922Y497617D01*
X1499843D01*
X1497304Y495078D01*
Y484922D01*
X1499843Y482383D01*
X1504922D01*
X1502383Y487461D02*
X1507461Y482383D01*
X1504922D02*
X1507461Y484922D01*
X1522696Y482383D02*
X1512539D01*
X1522696Y492539D01*
Y495078D01*
X1520157Y497617D01*
X1515078D01*
X1512539Y495078D01*
X1648000Y660578D02*
X1645461Y663118D01*
X1640383D01*
X1637843Y660578D01*
Y650422D01*
X1640383Y647883D01*
X1645461D01*
X1648000Y650422D01*
X1653078Y647883D02*
X1658157D01*
X1655618D01*
Y663118D01*
X1653078Y660578D01*
X1574461Y662328D02*
X1571922Y664867D01*
X1566843D01*
X1564304Y662328D01*
Y652172D01*
X1566843Y649632D01*
X1571922D01*
X1574461Y652172D01*
X1589696Y649632D02*
X1579539D01*
X1589696Y659789D01*
Y662328D01*
X1587157Y664867D01*
X1582078D01*
X1579539Y662328D01*
X1505836Y640502D02*
Y650498D01*
X1510834D01*
X1512500Y648832D01*
Y645500D01*
X1510834Y643834D01*
X1505836D01*
X1509168D02*
X1512500Y640502D01*
X1515832D02*
X1519164D01*
X1517498D01*
Y650498D01*
X1515832Y648832D01*
X1644593Y443117D02*
Y427882D01*
X1654750D01*
X1659828D02*
X1664907D01*
X1662368D01*
Y443117D01*
X1659828Y440578D01*
X1478277Y635224D02*
X1463042D01*
Y642842D01*
X1465582Y645381D01*
X1470660D01*
X1473199Y642842D01*
Y635224D01*
Y640303D02*
X1478277Y645381D01*
X1465582Y650459D02*
X1463042Y652998D01*
Y658077D01*
X1465582Y660616D01*
X1468121D01*
X1470660Y658077D01*
Y655537D01*
Y658077D01*
X1473199Y660616D01*
X1475738D01*
X1478277Y658077D01*
Y652998D01*
X1475738Y650459D01*
X1390652Y502916D02*
X1405887D01*
Y495298D01*
X1403348Y492759D01*
X1398270D01*
X1395731Y495298D01*
Y502916D01*
Y497837D02*
X1390652Y492759D01*
Y480063D02*
X1405887D01*
X1398270Y487681D01*
Y477524D01*
X1345943Y635253D02*
Y645410D01*
X1343403Y647949D01*
X1338325D01*
X1335786Y645410D01*
Y635253D01*
X1338325Y632714D01*
X1343403D01*
X1340864Y637792D02*
X1345943Y632714D01*
X1343403D02*
X1345943Y635253D01*
X1351021Y632714D02*
X1356099D01*
X1353560D01*
Y647949D01*
X1351021Y645410D01*
X1710433Y663189D02*
X1705354D01*
X1707894D01*
Y650493D01*
X1705354Y647954D01*
X1702815D01*
X1700276Y650493D01*
X1725668Y647954D02*
X1715511D01*
X1725668Y658111D01*
Y660650D01*
X1723129Y663189D01*
X1718050D01*
X1715511Y660650D01*
X1240787Y594863D02*
X1235708D01*
X1238248D01*
Y582167D01*
X1235708Y579628D01*
X1233169D01*
X1230630Y582167D01*
X1245865Y579628D02*
X1250943D01*
X1248404D01*
Y594863D01*
X1245865Y592324D01*
X1452304Y355117D02*
Y339883D01*
X1459922D01*
X1462461Y342422D01*
Y352578D01*
X1459922Y355117D01*
X1452304D01*
X1475157Y339883D02*
Y355117D01*
X1467539Y347500D01*
X1477696D01*
X1445618Y507946D02*
X1430383D01*
Y500328D01*
X1432922Y497789D01*
X1443078D01*
X1445618Y500328D01*
Y507946D01*
X1430383Y482554D02*
Y492711D01*
X1440539Y482554D01*
X1443078D01*
X1445618Y485093D01*
Y490172D01*
X1443078Y492711D01*
X1429883Y637343D02*
X1445117D01*
Y644961D01*
X1442578Y647500D01*
X1432422D01*
X1429883Y644961D01*
Y637343D01*
X1445117Y652578D02*
Y657657D01*
Y655118D01*
X1429883D01*
X1432422Y652578D01*
D13*
X1437658Y531674D02*
D03*
X1437619Y608770D02*
D03*
M02*
