G04*
G04 #@! TF.GenerationSoftware,Altium Limited,Altium Designer,23.0.1 (38)*
G04*
G04 Layer_Color=8421504*
%FSLAX44Y44*%
%MOMM*%
G71*
G04*
G04 #@! TF.SameCoordinates,E0B9C1ED-34CA-4D35-9301-72E17DFC46F4*
G04*
G04*
G04 #@! TF.FilePolarity,Positive*
G04*
G01*
G75*
%ADD14R,1.2940X0.7460*%
%ADD15R,0.7660X0.5080*%
%ADD16R,1.0720X0.5620*%
%ADD17R,3.5040X1.0160*%
%ADD18R,8.3800X10.4900*%
%ADD19R,12.5000X3.1500*%
%ADD20R,3.3082X1.3549*%
%ADD21R,1.3500X1.0000*%
%ADD22R,0.8500X0.8500*%
D14*
X1497860Y518980D02*
D03*
X1497860Y529440D02*
D03*
X1497860Y539900D02*
D03*
X1497860Y550360D02*
D03*
X1514300Y518980D02*
D03*
X1514300Y529440D02*
D03*
X1514300Y539900D02*
D03*
X1514300Y550360D02*
D03*
X1370255Y613225D02*
D03*
Y602765D02*
D03*
Y592305D02*
D03*
Y581845D02*
D03*
X1353815Y613225D02*
D03*
Y602765D02*
D03*
Y592305D02*
D03*
Y581845D02*
D03*
D15*
X1527460Y515620D02*
D03*
Y528320D02*
D03*
Y541020D02*
D03*
Y553720D02*
D03*
X1340655Y616585D02*
D03*
Y603885D02*
D03*
Y591185D02*
D03*
Y578485D02*
D03*
D16*
X1470790Y515620D02*
D03*
Y528320D02*
D03*
Y541020D02*
D03*
Y553720D02*
D03*
X1397325Y616585D02*
D03*
Y603885D02*
D03*
Y591185D02*
D03*
Y578485D02*
D03*
D17*
X1389380Y821690D02*
D03*
Y770890D02*
D03*
X1526540Y393700D02*
D03*
Y444500D02*
D03*
D18*
X1491880Y796290D02*
D03*
X1424040Y419100D02*
D03*
D19*
X1653540Y707390D02*
D03*
Y860890D02*
D03*
X1654810Y512360D02*
D03*
Y358860D02*
D03*
D20*
X1511300Y614633D02*
D03*
Y673147D02*
D03*
X1351280Y514397D02*
D03*
Y455883D02*
D03*
D21*
X1468120Y594360D02*
D03*
Y612360D02*
D03*
X1400810Y541130D02*
D03*
Y523130D02*
D03*
D22*
X1437640Y519190D02*
D03*
Y552690D02*
D03*
Y621270D02*
D03*
Y587770D02*
D03*
M02*
