G04*
G04 #@! TF.GenerationSoftware,Altium Limited,Altium Designer,23.0.1 (38)*
G04*
G04 Layer_Physical_Order=1*
G04 Layer_Color=255*
%FSLAX44Y44*%
%MOMM*%
G71*
G04*
G04 #@! TF.SameCoordinates,E0B9C1ED-34CA-4D35-9301-72E17DFC46F4*
G04*
G04*
G04 #@! TF.FilePolarity,Positive*
G04*
G01*
G75*
%ADD17R,3.5040X1.0160*%
%ADD18R,8.3800X10.4900*%
%ADD19R,12.5000X3.1500*%
%ADD20R,3.3082X1.3549*%
%ADD21R,1.3500X1.0000*%
%ADD22R,0.8500X0.8500*%
%ADD25C,3.4342*%
%ADD26R,1.3720X0.7100*%
%ADD33C,1.2500*%
%ADD34C,1.9500*%
%ADD35R,1.9500X1.9500*%
%ADD36C,1.2700*%
%ADD37C,0.6000*%
G36*
X1521750Y728980D02*
X1511590Y718820D01*
X1457960D01*
X1447800Y728980D01*
Y848360D01*
X1449070Y849630D01*
X1521750D01*
Y728980D01*
D02*
G37*
G36*
X1770000Y692605D02*
X1768730Y692219D01*
X1768401Y692711D01*
X1731571Y729541D01*
X1730731Y730103D01*
X1729740Y730300D01*
X1588770D01*
X1588367Y730219D01*
X1587958Y730169D01*
X1587874Y730122D01*
X1587779Y730103D01*
X1587437Y729874D01*
X1587079Y729671D01*
X1561059Y707240D01*
X1560194Y708171D01*
X1690173Y838150D01*
X1720850D01*
X1721841Y838347D01*
X1722681Y838909D01*
X1723243Y839749D01*
X1723440Y840740D01*
Y887730D01*
X1723243Y888721D01*
X1722681Y889561D01*
X1721411Y890831D01*
X1720571Y891393D01*
X1719580Y891590D01*
X1590040D01*
X1589049Y891393D01*
X1588209Y890831D01*
X1543759Y846381D01*
X1543197Y845541D01*
X1543000Y844550D01*
Y739663D01*
X1518397Y715060D01*
X1512215D01*
X1512090Y716330D01*
X1512581Y716427D01*
X1513421Y716989D01*
X1523581Y727149D01*
X1524143Y727989D01*
X1524340Y728980D01*
Y741300D01*
X1536320D01*
Y851280D01*
X1523702D01*
X1523581Y851461D01*
X1522741Y852023D01*
X1521750Y852220D01*
X1449070D01*
X1448079Y852023D01*
X1447239Y851461D01*
X1445969Y850191D01*
X1445407Y849351D01*
X1445210Y848360D01*
Y728980D01*
X1445407Y727989D01*
X1445969Y727149D01*
X1456129Y716989D01*
X1456969Y716427D01*
X1457460Y716330D01*
X1457335Y715060D01*
X1245870D01*
X1244879Y714863D01*
X1244039Y714301D01*
X1208673Y678936D01*
X1207500Y679422D01*
Y920000D01*
X1770000D01*
Y692605D01*
D02*
G37*
G36*
X1766570Y690880D02*
Y608330D01*
X1553210D01*
X1551940Y609600D01*
X1551940Y695960D01*
X1588770Y727710D01*
X1729740D01*
X1766570Y690880D01*
D02*
G37*
G36*
X1733550Y600710D02*
X1766570D01*
Y543560D01*
X1715770Y492760D01*
X1583690D01*
X1572260Y504190D01*
X1484630D01*
Y596900D01*
X1550670D01*
Y600710D01*
X1731010D01*
X1732280Y601980D01*
X1733550Y600710D01*
D02*
G37*
G36*
X1451610Y523240D02*
X1454150Y520700D01*
X1479550D01*
Y496570D01*
X1522730D01*
X1546860Y472440D01*
Y384810D01*
X1510030D01*
Y444500D01*
X1459230Y495300D01*
Y502920D01*
X1328420D01*
Y527050D01*
X1447800D01*
X1451610Y523240D01*
D02*
G37*
G36*
X1720850Y887730D02*
Y840740D01*
X1689100D01*
X1535430Y687070D01*
Y661670D01*
X1314450D01*
X1242060Y589280D01*
X1242060Y535940D01*
X1252220Y525780D01*
X1273810D01*
X1334770Y464820D01*
X1372870D01*
Y345440D01*
X1586230D01*
Y377190D01*
X1592580Y383540D01*
X1722120D01*
X1728470Y377190D01*
Y300990D01*
X1283970D01*
X1252220Y332740D01*
Y469900D01*
X1207250D01*
Y673850D01*
X1245870Y712470D01*
X1519470D01*
X1545590Y738590D01*
Y844550D01*
X1590040Y889000D01*
X1719580D01*
X1720850Y887730D01*
D02*
G37*
G36*
X1548220Y696092D02*
X1549350Y695532D01*
X1549350Y609600D01*
X1549547Y608609D01*
X1550109Y607769D01*
X1551379Y606499D01*
X1552219Y605937D01*
X1553210Y605740D01*
X1731655D01*
X1731780Y604470D01*
X1731289Y604373D01*
X1730449Y603811D01*
X1729937Y603300D01*
X1550670D01*
X1549679Y603103D01*
X1548839Y602541D01*
X1548277Y601701D01*
X1548080Y600710D01*
Y599490D01*
X1484630D01*
X1483639Y599293D01*
X1482799Y598731D01*
X1482237Y597891D01*
X1482040Y596900D01*
Y523618D01*
X1480770Y522939D01*
X1480541Y523093D01*
X1479550Y523290D01*
X1455223D01*
X1449631Y528881D01*
X1448791Y529443D01*
X1447800Y529640D01*
X1410100D01*
Y530670D01*
X1391520D01*
Y529640D01*
X1328420D01*
X1327429Y529443D01*
X1326589Y528881D01*
X1326027Y528041D01*
X1325830Y527050D01*
Y502920D01*
X1326027Y501929D01*
X1326589Y501089D01*
X1327429Y500527D01*
X1328420Y500330D01*
X1456640D01*
Y495300D01*
X1456837Y494309D01*
X1457399Y493469D01*
X1506480Y444388D01*
Y436880D01*
X1507440D01*
Y401320D01*
X1506480D01*
Y386080D01*
X1507440D01*
Y384810D01*
X1507637Y383819D01*
X1508199Y382979D01*
X1509039Y382417D01*
X1510030Y382220D01*
X1546860D01*
X1547851Y382417D01*
X1548691Y382979D01*
X1549253Y383819D01*
X1549450Y384810D01*
Y448310D01*
Y472440D01*
X1549253Y473431D01*
X1548691Y474271D01*
X1524561Y498401D01*
X1523721Y498963D01*
X1522730Y499160D01*
X1482140D01*
Y501272D01*
X1483410Y501950D01*
X1483639Y501797D01*
X1484630Y501600D01*
X1571187D01*
X1581859Y490929D01*
X1582699Y490367D01*
X1583690Y490170D01*
X1715770D01*
X1716761Y490367D01*
X1717601Y490929D01*
X1768401Y541729D01*
X1768730Y542221D01*
X1770000Y541836D01*
Y282500D01*
X1767500Y280000D01*
X1207500D01*
Y467310D01*
X1249630D01*
Y332740D01*
X1249827Y331749D01*
X1250389Y330909D01*
X1282139Y299159D01*
X1282979Y298597D01*
X1283970Y298400D01*
X1728470D01*
X1729461Y298597D01*
X1730301Y299159D01*
X1730863Y299999D01*
X1731060Y300990D01*
Y377190D01*
X1730863Y378181D01*
X1730301Y379021D01*
X1723951Y385371D01*
X1723111Y385933D01*
X1722120Y386130D01*
X1592580D01*
X1591589Y385933D01*
X1590749Y385371D01*
X1584399Y379021D01*
X1583837Y378181D01*
X1583640Y377190D01*
Y348030D01*
X1375460D01*
Y464820D01*
X1375263Y465811D01*
X1374701Y466651D01*
X1373861Y467213D01*
X1372870Y467410D01*
X1335843D01*
X1275641Y527611D01*
X1275589Y527646D01*
X1275552Y527696D01*
X1275171Y527925D01*
X1274801Y528173D01*
X1274740Y528185D01*
X1274686Y528217D01*
X1274246Y528283D01*
X1273810Y528370D01*
X1253293D01*
X1244650Y537013D01*
X1244650Y588207D01*
X1315523Y659080D01*
X1535430D01*
X1536421Y659277D01*
X1537261Y659839D01*
X1537823Y660679D01*
X1538020Y661670D01*
Y685997D01*
X1548125Y696103D01*
X1548220Y696092D01*
D02*
G37*
%LPC*%
G36*
X1408430Y829360D02*
X1365250D01*
X1364259Y829163D01*
X1363419Y828601D01*
X1362857Y827761D01*
X1362660Y826770D01*
Y763270D01*
X1362857Y762279D01*
X1363419Y761439D01*
X1364259Y760877D01*
X1365250Y760680D01*
X1408430D01*
X1409421Y760877D01*
X1410261Y761439D01*
X1415341Y766519D01*
X1415903Y767359D01*
X1416100Y768350D01*
Y821690D01*
X1415903Y822681D01*
X1415341Y823521D01*
X1410261Y828601D01*
X1409440Y829150D01*
Y829310D01*
X1408680D01*
X1408430Y829360D01*
D02*
G37*
%LPD*%
G36*
X1413510Y821690D02*
Y768350D01*
X1408430Y763270D01*
X1365250D01*
Y826770D01*
X1408430D01*
X1413510Y821690D01*
D02*
G37*
%LPC*%
G36*
X1417320Y649020D02*
X1379220D01*
X1378229Y648823D01*
X1377389Y648261D01*
X1372309Y643181D01*
X1371747Y642341D01*
X1371550Y641350D01*
Y626110D01*
X1371747Y625119D01*
X1372309Y624279D01*
X1372734Y623995D01*
X1372348Y622725D01*
X1339278D01*
X1331521Y630481D01*
X1330681Y631043D01*
X1329690Y631240D01*
X1326731D01*
X1326170Y631390D01*
X1323830D01*
X1323269Y631240D01*
X1306731D01*
X1306170Y631390D01*
X1303830D01*
X1303269Y631240D01*
X1297940D01*
X1296949Y631043D01*
X1296109Y630481D01*
X1295547Y629641D01*
X1295350Y628650D01*
Y575310D01*
X1295547Y574319D01*
X1296109Y573479D01*
X1296484Y573104D01*
X1297324Y572542D01*
X1298315Y572345D01*
X1379595D01*
X1380586Y572542D01*
X1381426Y573104D01*
X1381988Y573944D01*
X1382185Y574935D01*
Y620135D01*
X1381988Y621126D01*
X1381426Y621966D01*
X1381001Y622250D01*
X1381387Y623520D01*
X1384250D01*
Y613410D01*
X1384447Y612419D01*
X1385009Y611579D01*
X1386279Y610309D01*
X1387119Y609747D01*
X1388110Y609550D01*
X1453517D01*
X1460539Y602529D01*
X1461379Y601967D01*
X1462370Y601770D01*
X1463174Y601930D01*
X1535430D01*
X1536421Y602127D01*
X1537261Y602689D01*
X1537823Y603529D01*
X1538020Y604520D01*
Y626110D01*
X1537823Y627101D01*
X1537261Y627941D01*
X1536421Y628503D01*
X1535430Y628700D01*
X1424990D01*
Y641350D01*
X1424793Y642341D01*
X1424231Y643181D01*
X1419151Y648261D01*
X1418311Y648823D01*
X1417320Y649020D01*
D02*
G37*
G36*
X1468480Y474090D02*
X1379600D01*
Y364110D01*
X1468480D01*
Y474090D01*
D02*
G37*
%LPD*%
G36*
X1422400Y641350D02*
Y626110D01*
X1535430D01*
Y604520D01*
X1462530D01*
X1462370Y604360D01*
X1454590Y612140D01*
X1388110D01*
X1386840Y613410D01*
Y626110D01*
X1374140D01*
Y641350D01*
X1379220Y646430D01*
X1417320D01*
X1422400Y641350D01*
D02*
G37*
G36*
X1338205Y620135D02*
X1379595D01*
Y574935D01*
X1298315D01*
X1297940Y575310D01*
Y628650D01*
X1329690D01*
X1338205Y620135D01*
D02*
G37*
D17*
X1389380Y821690D02*
D03*
Y770890D02*
D03*
X1526540Y393700D02*
D03*
Y444500D02*
D03*
D18*
X1491880Y796290D02*
D03*
X1424040Y419100D02*
D03*
D19*
X1653540Y707390D02*
D03*
Y860890D02*
D03*
X1654810Y512360D02*
D03*
Y358860D02*
D03*
D20*
X1511300Y614633D02*
D03*
Y673147D02*
D03*
X1351280Y514397D02*
D03*
Y455883D02*
D03*
D21*
X1468120Y594360D02*
D03*
Y612360D02*
D03*
X1400810Y541130D02*
D03*
Y523130D02*
D03*
D22*
X1437640Y519190D02*
D03*
Y552690D02*
D03*
Y621270D02*
D03*
Y587770D02*
D03*
D25*
X1507945Y531495D02*
D03*
X1360170Y600710D02*
D03*
D26*
X1470660Y515620D02*
D03*
Y528320D02*
D03*
Y541020D02*
D03*
Y553720D02*
D03*
X1397455Y616585D02*
D03*
Y603885D02*
D03*
Y591185D02*
D03*
Y578485D02*
D03*
D33*
X1651000Y626980D02*
D03*
Y576980D02*
D03*
X1576070Y626980D02*
D03*
Y576980D02*
D03*
D34*
X1739900Y620470D02*
D03*
X1264460Y513360D02*
D03*
D35*
X1739900Y585470D02*
D03*
X1264460Y548360D02*
D03*
D36*
X1242500Y855000D02*
D03*
X1262500D02*
D03*
X1282500D02*
D03*
Y880000D02*
D03*
X1262500D02*
D03*
X1242500D02*
D03*
X1685000Y677500D02*
D03*
X1667500D02*
D03*
X1650000D02*
D03*
X1435000Y407500D02*
D03*
X1412500Y427500D02*
D03*
X1435000D02*
D03*
Y447500D02*
D03*
X1413000Y447250D02*
D03*
X1412750Y408000D02*
D03*
X1325000Y582500D02*
D03*
X1398270Y805180D02*
D03*
Y787400D02*
D03*
X1379220D02*
D03*
X1383030Y637540D02*
D03*
X1403350D02*
D03*
X1508760Y571500D02*
D03*
X1525270D02*
D03*
Y588010D02*
D03*
X1508760D02*
D03*
X1492250D02*
D03*
X1325000Y602500D02*
D03*
X1305000D02*
D03*
Y622500D02*
D03*
Y582500D02*
D03*
X1325000Y622500D02*
D03*
X1460000Y727500D02*
D03*
X1615000Y677500D02*
D03*
X1632500D02*
D03*
X1379220Y805180D02*
D03*
X1485000Y727500D02*
D03*
X1510000D02*
D03*
X1492250Y571500D02*
D03*
X1597500Y677500D02*
D03*
D37*
X1455000Y572500D02*
D03*
X1442500D02*
D03*
X1417500D02*
D03*
X1430000D02*
D03*
M02*
