G04*
G04 #@! TF.GenerationSoftware,Altium Limited,Altium Designer,23.0.1 (38)*
G04*
G04 Layer_Color=32896*
%FSLAX44Y44*%
%MOMM*%
G71*
G04*
G04 #@! TF.SameCoordinates,E0B9C1ED-34CA-4D35-9301-72E17DFC46F4*
G04*
G04*
G04 #@! TF.FilePolarity,Positive*
G04*
G01*
G75*
%ADD38C,0.3540*%
D38*
X1518960Y311275D02*
X1508803D01*
Y308736D01*
X1518960Y298579D01*
Y296040D01*
X1508803D01*
X1503725Y311275D02*
Y301118D01*
X1498647Y296040D01*
X1493568Y301118D01*
Y311275D01*
X1478333Y308736D02*
X1480872Y311275D01*
X1485951D01*
X1488490Y308736D01*
Y306197D01*
X1485951Y303657D01*
X1480872D01*
X1478333Y301118D01*
Y298579D01*
X1480872Y296040D01*
X1485951D01*
X1488490Y298579D01*
X1458020Y296040D02*
Y311275D01*
X1450402D01*
X1447863Y308736D01*
Y303657D01*
X1450402Y301118D01*
X1458020D01*
X1452941D02*
X1447863Y296040D01*
X1432628Y311275D02*
X1442785D01*
Y296040D01*
X1432628D01*
X1442785Y303657D02*
X1437706D01*
X1427550Y311275D02*
Y301118D01*
X1422471Y296040D01*
X1417393Y301118D01*
Y311275D01*
X1412314Y296040D02*
X1407236D01*
X1409775D01*
Y311275D01*
X1412314Y308736D01*
X1378960Y311353D02*
Y296118D01*
X1371342D01*
X1368803Y298657D01*
Y301197D01*
X1371342Y303736D01*
X1378960D01*
X1371342D01*
X1368803Y306275D01*
Y308814D01*
X1371342Y311353D01*
X1378960D01*
X1363725Y306275D02*
Y298657D01*
X1361186Y296118D01*
X1353568D01*
Y293579D01*
X1356107Y291040D01*
X1358647D01*
X1353568Y296118D02*
Y306275D01*
X1348490D02*
X1345951D01*
Y303736D01*
X1348490D01*
Y306275D01*
Y298657D02*
X1345951D01*
Y296118D01*
X1348490D01*
Y298657D01*
X1320559Y296118D02*
Y306275D01*
X1315481Y311353D01*
X1310402Y306275D01*
Y296118D01*
Y303736D01*
X1320559D01*
X1305324Y296118D02*
X1300246D01*
X1302785D01*
Y311353D01*
X1305324D01*
X1285010Y296118D02*
X1290089D01*
X1292628Y298657D01*
Y303736D01*
X1290089Y306275D01*
X1285010D01*
X1282471Y303736D01*
Y301197D01*
X1292628D01*
X1277393Y306275D02*
X1267236Y296118D01*
X1272315Y301197D01*
X1267236Y306275D01*
X1277393Y296118D01*
X1246923Y311353D02*
X1236766Y296118D01*
Y311353D02*
X1246923Y296118D01*
M02*
