G04*
G04 #@! TF.GenerationSoftware,Altium Limited,Altium Designer,23.0.1 (38)*
G04*
G04 Layer_Color=8388736*
%FSLAX44Y44*%
%MOMM*%
G71*
G04*
G04 #@! TF.SameCoordinates,A3EDC093-15D2-44AE-8FD2-E7B7E0E1842E*
G04*
G04*
G04 #@! TF.FilePolarity,Negative*
G04*
G01*
G75*
%ADD19R,12.5000X3.1500*%
%ADD20R,3.3082X1.3549*%
%ADD23R,3.7072X1.2192*%
%ADD24R,8.5832X10.6932*%
%ADD25C,3.4342*%
%ADD26R,1.3720X0.7100*%
%ADD27R,1.5532X1.2032*%
%ADD28R,1.0532X1.0532*%
%ADD29C,1.4532*%
%ADD30C,2.1532*%
%ADD31R,2.1532X2.1532*%
%ADD32C,1.4732*%
G36*
X1379595Y574935D02*
X1335195D01*
Y582035D01*
X1341095D01*
Y587635D01*
X1335195D01*
Y594735D01*
X1341095D01*
Y600335D01*
X1335195D01*
Y607435D01*
X1341095D01*
Y613035D01*
X1335195D01*
Y620135D01*
X1379595D01*
Y574935D01*
D02*
G37*
G36*
X1532920Y550170D02*
X1527020D01*
Y544570D01*
X1532920D01*
Y537470D01*
X1527020D01*
Y531870D01*
X1532920D01*
Y524770D01*
X1527020D01*
Y519170D01*
X1532920D01*
Y512070D01*
X1488520D01*
Y557270D01*
X1532920D01*
Y550170D01*
D02*
G37*
D19*
X1653540Y707390D02*
D03*
Y860890D02*
D03*
X1654810Y512360D02*
D03*
Y358860D02*
D03*
D20*
X1511300Y614633D02*
D03*
Y673147D02*
D03*
X1351280Y514397D02*
D03*
Y455883D02*
D03*
D23*
X1389380Y821690D02*
D03*
Y770890D02*
D03*
X1526540Y393700D02*
D03*
Y444500D02*
D03*
D24*
X1491880Y796290D02*
D03*
X1424040Y419100D02*
D03*
D25*
X1507945Y531495D02*
D03*
X1360170Y600710D02*
D03*
D26*
X1470660Y515620D02*
D03*
Y528320D02*
D03*
Y541020D02*
D03*
Y553720D02*
D03*
X1397455Y616585D02*
D03*
Y603885D02*
D03*
Y591185D02*
D03*
Y578485D02*
D03*
D27*
X1468120Y594360D02*
D03*
Y612360D02*
D03*
X1400810Y541130D02*
D03*
Y523130D02*
D03*
D28*
X1437640Y519190D02*
D03*
Y552690D02*
D03*
Y621270D02*
D03*
Y587770D02*
D03*
D29*
X1651000Y626980D02*
D03*
Y576980D02*
D03*
X1576070Y626980D02*
D03*
Y576980D02*
D03*
D30*
X1739900Y620470D02*
D03*
X1264460Y513360D02*
D03*
D31*
X1739900Y585470D02*
D03*
X1264460Y548360D02*
D03*
D32*
X1242500Y855000D02*
D03*
X1262500D02*
D03*
X1282500D02*
D03*
Y880000D02*
D03*
X1262500D02*
D03*
X1242500D02*
D03*
X1435000Y407500D02*
D03*
X1412500Y427500D02*
D03*
X1435000D02*
D03*
Y447500D02*
D03*
X1413000Y447250D02*
D03*
X1412750Y408000D02*
D03*
M02*
