M48
;Layer_Color=9474304
;FILE_FORMAT=4:3
METRIC,LZ
;TYPE=PLATED
T1F00S00C0.300
T2F00S00C0.711
T3F00S00C0.750
T4F00S00C1.300
%
T01
X014175Y005725
X0143
X014425
X01455
T02
X015975Y006775
X01615
X016325
X0165
X016675
X01685
X0151Y007275
X01485
X0146
X0139827Y007874
X0137922
X0138303Y0063754
X0140335
X01325Y006225
X01305
Y006025
X01325
Y005825
X01305
X0149225Y0058801
X0150876
Y005715
X0152527
Y0058801
X0149225Y005715
X01435Y004475
Y004275
Y004075
X0141275Y00408
X014125Y004275
X01413Y0044725
X0139827Y0080518
X0137922
X012825Y00855
X012625
X012425
Y0088
X012625
X012825
T03
X01651Y0057698
Y0062698
X0157607
Y0057698
T04
X017399Y0058547
Y0062047
X0126446Y0054836
Y0051336
M30
